{
    "asset" : {
        "generator" : "Khronos glTF Blender I/O v1.8.13",
        "version" : "2.0"
    },
    "scene" : 0,
    "scenes" : [
        {
            "name" : "Scene",
            "nodes" : [
                1,
                2
            ]
        }
    ],
    "nodes" : [
        {
            "mesh" : 0,
            "name" : "Cylinder.003",
            "rotation" : [
                0.27059808373451233,
                -0.27059808373451233,
                -0.653281569480896,
                0.6532815098762512
            ],
            "translation" : [
                -0.35781538486480713,
                0,
                0
            ]
        },
        {
            "children" : [
                0
            ],
            "mesh" : 1,
            "name" : "bot",
            "translation" : [
                0,
                0.09966254234313965,
                0
            ]
        },
        {
            "mesh" : 2,
            "name" : "grnd"
        }
    ],
    "materials" : [
        {
            "doubleSided" : true,
            "name" : "dron-arms",
            "pbrMetallicRoughness" : {
                "baseColorFactor" : [
                    0.2644299566745758,
                    0.2644299566745758,
                    0.2644299566745758,
                    1
                ],
                "metallicFactor" : 0,
                "roughnessFactor" : 0.5136985778808594
            }
        },
        {
            "doubleSided" : true,
            "name" : "drone",
            "pbrMetallicRoughness" : {
                "baseColorFactor" : [
                    0.14579401910305023,
                    0.2597762942314148,
                    0.32901453971862793,
                    1
                ],
                "metallicFactor" : 0,
                "roughnessFactor" : 0.568493127822876
            }
        },
        {
            "doubleSided" : true,
            "name" : "grnd",
            "pbrMetallicRoughness" : {
                "baseColorFactor" : [
                    0.13917970657348633,
                    0.13917970657348633,
                    0.13917970657348633,
                    1
                ],
                "metallicFactor" : 0
            }
        }
    ],
    "meshes" : [
        {
            "name" : "Cylinder.003",
            "primitives" : [
                {
                    "attributes" : {
                        "POSITION" : 0,
                        "NORMAL" : 1,
                        "TEXCOORD_0" : 2
                    },
                    "indices" : 3,
                    "material" : 0
                }
            ]
        },
        {
            "name" : "Cylinder.001",
            "primitives" : [
                {
                    "attributes" : {
                        "POSITION" : 4,
                        "NORMAL" : 5,
                        "TEXCOORD_0" : 6
                    },
                    "indices" : 7,
                    "material" : 1
                },
                {
                    "attributes" : {
                        "POSITION" : 8,
                        "NORMAL" : 9,
                        "TEXCOORD_0" : 10
                    },
                    "indices" : 11,
                    "material" : 0
                }
            ]
        },
        {
            "name" : "Plane",
            "primitives" : [
                {
                    "attributes" : {
                        "POSITION" : 12,
                        "NORMAL" : 13,
                        "TEXCOORD_0" : 14
                    },
                    "indices" : 15,
                    "material" : 2
                }
            ]
        }
    ],
    "accessors" : [
        {
            "bufferView" : 0,
            "componentType" : 5126,
            "count" : 2754,
            "max" : [
                0.07771293073892593,
                1.9352401494979858,
                1.4292128086090088
            ],
            "min" : [
                -0.15422670543193817,
                -1.4292128086090088,
                -1.9352401494979858
            ],
            "type" : "VEC3"
        },
        {
            "bufferView" : 1,
            "componentType" : 5126,
            "count" : 2754,
            "type" : "VEC3"
        },
        {
            "bufferView" : 2,
            "componentType" : 5126,
            "count" : 2754,
            "type" : "VEC2"
        },
        {
            "bufferView" : 3,
            "componentType" : 5123,
            "count" : 10368,
            "type" : "SCALAR"
        },
        {
            "bufferView" : 4,
            "componentType" : 5126,
            "count" : 638,
            "max" : [
                0.948693037033081,
                1.0160751342773438,
                0.948693037033081
            ],
            "min" : [
                -0.948693037033081,
                0.12072709202766418,
                -0.9486929178237915
            ],
            "type" : "VEC3"
        },
        {
            "bufferView" : 5,
            "componentType" : 5126,
            "count" : 638,
            "type" : "VEC3"
        },
        {
            "bufferView" : 6,
            "componentType" : 5126,
            "count" : 638,
            "type" : "VEC2"
        },
        {
            "bufferView" : 7,
            "componentType" : 5123,
            "count" : 2784,
            "type" : "SCALAR"
        },
        {
            "bufferView" : 8,
            "componentType" : 5126,
            "count" : 404,
            "max" : [
                0.9732087850570679,
                0.12072709947824478,
                0.9732087850570679
            ],
            "min" : [
                -0.9732087850570679,
                -0.06250002235174179,
                -0.9732087254524231
            ],
            "type" : "VEC3"
        },
        {
            "bufferView" : 9,
            "componentType" : 5126,
            "count" : 404,
            "type" : "VEC3"
        },
        {
            "bufferView" : 10,
            "componentType" : 5126,
            "count" : 404,
            "type" : "VEC2"
        },
        {
            "bufferView" : 11,
            "componentType" : 5123,
            "count" : 1632,
            "type" : "SCALAR"
        },
        {
            "bufferView" : 12,
            "componentType" : 5126,
            "count" : 4,
            "max" : [
                252.16758728027344,
                0,
                252.16758728027344
            ],
            "min" : [
                -252.16758728027344,
                0,
                -252.16758728027344
            ],
            "type" : "VEC3"
        },
        {
            "bufferView" : 13,
            "componentType" : 5126,
            "count" : 4,
            "type" : "VEC3"
        },
        {
            "bufferView" : 14,
            "componentType" : 5126,
            "count" : 4,
            "type" : "VEC2"
        },
        {
            "bufferView" : 15,
            "componentType" : 5123,
            "count" : 6,
            "type" : "SCALAR"
        }
    ],
    "bufferViews" : [
        {
            "buffer" : 0,
            "byteLength" : 33048,
            "byteOffset" : 0
        },
        {
            "buffer" : 0,
            "byteLength" : 33048,
            "byteOffset" : 33048
        },
        {
            "buffer" : 0,
            "byteLength" : 22032,
            "byteOffset" : 66096
        },
        {
            "buffer" : 0,
            "byteLength" : 20736,
            "byteOffset" : 88128
        },
        {
            "buffer" : 0,
            "byteLength" : 7656,
            "byteOffset" : 108864
        },
        {
            "buffer" : 0,
            "byteLength" : 7656,
            "byteOffset" : 116520
        },
        {
            "buffer" : 0,
            "byteLength" : 5104,
            "byteOffset" : 124176
        },
        {
            "buffer" : 0,
            "byteLength" : 5568,
            "byteOffset" : 129280
        },
        {
            "buffer" : 0,
            "byteLength" : 4848,
            "byteOffset" : 134848
        },
        {
            "buffer" : 0,
            "byteLength" : 4848,
            "byteOffset" : 139696
        },
        {
            "buffer" : 0,
            "byteLength" : 3232,
            "byteOffset" : 144544
        },
        {
            "buffer" : 0,
            "byteLength" : 3264,
            "byteOffset" : 147776
        },
        {
            "buffer" : 0,
            "byteLength" : 48,
            "byteOffset" : 151040
        },
        {
            "buffer" : 0,
            "byteLength" : 48,
            "byteOffset" : 151088
        },
        {
            "buffer" : 0,
            "byteLength" : 32,
            "byteOffset" : 151136
        },
        {
            "buffer" : 0,
            "byteLength" : 12,
            "byteOffset" : 151168
        }
    ],
    "buffers" : [
        {
            "byteLength" : 151180,
            "uri" : "data:application/octet-stream;base64,"
        }
    ]
}
